<?xml version="1.0" encoding="utf-8"?>
<!-- Generator: Adobe Illustrator 17.0.0, SVG Export Plug-In . SVG Version: 6.00 Build 0)  -->
<!DOCTYPE svg PUBLIC "-//W3C//DTD SVG 1.1//EN" "http://www.w3.org/Graphics/SVG/1.1/DTD/svg11.dtd">
<svg version="1.1" id="Layer_1" xmlns="http://www.w3.org/2000/svg" xmlns:xlink="http://www.w3.org/1999/xlink" x="0px" y="0px"
	 width="216px" height="216px" viewBox="0 0 216 216" enable-background="new 0 0 216 216" xml:space="preserve">
<title>bem_amado_logo</title>
<desc>Created with Sketch.</desc>
<ellipse id="Oval-4" fill="#F39720" cx="108" cy="108" rx="108" ry="108"/>
<circle id="Oval" fill="#452312" cx="107.399" cy="107.819" r="100.545"/>
<g id="Shape" transform="translate(14.000000, 11.000000)">
	<path fill="#F39720" d="M8.967,68.642c0.818-2.511,2.766-3.644,4.861-3.782c2.229-0.158,4.428,0.843,5.204,3.304
		c1.712-1.966,4.094-2.106,5.976-1.493c2.996,0.976,5.38,3.929,4.133,7.752l-2.936,9.015L6.264,76.943L8.967,68.642L8.967,68.642z
		 M15.124,76.674l1.756-5.393c1.021-3.138-4.151-4.886-5.173-1.748l-1.775,5.449L15.124,76.674L15.124,76.674z M24.338,79.675
		l2.008-6.162c0.632-1.94-0.678-3.439-2.248-3.951c-1.57-0.511-3.483-0.061-4.115,1.879l-2.007,6.162L24.338,79.675L24.338,79.675z"
		/>
	<polygon fill="#F39720" points="32.768,59.548 38.276,51.502 40.776,53.213 33.541,63.785 16.234,51.941 23.452,41.394 
		25.953,43.106 20.463,51.127 25.34,54.465 30.711,46.616 33.237,48.345 27.866,56.194 	"/>
	<polygon fill="#F39720" points="46.436,47.054 44.029,48.896 31.268,32.217 33.222,30.722 44.925,34.612 44.23,22.3 46.135,20.841 
		58.898,37.521 56.515,39.343 47.527,27.597 48.126,37.414 46.769,38.453 37.449,35.308 	"/>
	<path fill="#F39720" d="M89.503,22.605l-7.492,0.724c-0.622,1.989-1.425,4.597-1.914,6.392l-3.255,0.315l6.344-21.979l2.211-0.213
		l10.434,20.358l-3.224,0.312L89.503,22.605L89.503,22.605z M82.871,20.383l5.194-0.502l-3.279-7.126L82.871,20.383L82.871,20.383z"
		/>
	<polygon fill="#F39720" points="103.045,29.077 100.106,28.34 105.213,7.972 107.6,8.571 111.84,20.15 121.042,11.943 
		123.37,12.527 118.262,32.895 115.354,32.165 118.952,17.82 111.64,24.399 109.983,23.983 106.643,14.733 	"/>
	<path fill="#F39720" d="M136.992,36.662l-6.281-4.148c-1.733,1.155-3.999,2.68-5.509,3.767l-2.728-1.801l18.753-13.102l1.852,1.223
		l-4.686,22.391l-2.704-1.785L136.992,36.662L136.992,36.662z M133.231,30.764l4.355,2.876l1.93-7.604L133.231,30.764
		L133.231,30.764z"/>
	<path fill="#F39720" d="M163.222,41.61c4.148,5.476,2.046,11.395-2.138,14.565c-4.185,3.169-10.428,3.572-14.576-1.904
		l-4.547-6.002l16.714-12.661L163.222,41.61L163.222,41.61z M148.923,52.442c2.935,3.874,7.385,3.589,10.35,1.342
		c2.965-2.246,4.469-6.47,1.534-10.344l-2.716-3.586l-11.885,9.002L148.923,52.442L148.923,52.442z"/>
	<path fill="#F39720" d="M173.63,64.513c2.414,1.291,4.356,3.534,5.187,6.354c0.84,2.85,0.413,5.759-0.907,8.181
		c-1.337,2.364-3.551,4.299-6.4,5.138c-2.851,0.839-5.759,0.413-8.163-0.849c-2.452-1.312-4.356-3.535-5.196-6.384
		c-0.83-2.821-0.441-5.75,0.916-8.151c1.336-2.364,3.552-4.299,6.401-5.138C168.317,62.824,171.226,63.25,173.63,64.513
		L173.63,64.513z M175.228,77.586c0.953-1.751,1.238-3.868,0.653-5.854c-0.585-1.986-1.962-3.583-3.705-4.508
		c-1.713-0.934-3.801-1.227-5.845-0.625s-3.64,1.979-4.574,3.693c-0.964,1.722-1.256,3.81-0.671,5.796
		c0.585,1.986,1.971,3.611,3.722,4.566c1.705,0.905,3.765,1.206,5.837,0.596C172.717,80.64,174.285,79.271,175.228,77.586
		L175.228,77.586z"/>
</g>
<g id="Shape_1_" transform="translate(22.000000, 132.000000)">
	<path fill="#F39720" d="M28.823,16.161c1.51,2.165,1.241,4.4,0.087,6.156c-1.217,1.873-3.341,3.024-5.772,2.159
		c0.536,2.553-0.787,4.536-2.411,5.669c-2.584,1.802-6.376,1.923-8.677-1.375l-5.421-7.775L23.83,9L28.823,16.161L28.823,16.161z
		 M10.756,21.774l3.707,5.315c1.167,1.673,3.153,1.532,4.506,0.588c1.354-0.943,2.149-2.741,0.982-4.415l-3.708-5.315L10.756,21.774
		L10.756,21.774z M18.704,16.231l3.244,4.651c1.887,2.707,6.4-0.367,4.513-3.074l-3.278-4.7L18.704,16.231L18.704,16.231z"/>
	<path fill="#F39720" d="M44.332,49.472l-6.436-3.91c-1.689,1.221-3.896,2.828-5.363,3.973l-2.795-1.697l18.25-13.803l1.898,1.153
		l-3.841,22.558l-2.77-1.683L44.332,49.472L44.332,49.472z M40.351,43.718l4.46,2.71l1.645-7.673L40.351,43.718L40.351,43.718z"/>
	<path fill="#F39720" d="M70.962,43.937l-3.07,20.738l-2.967-0.439l3.07-20.738L70.962,43.937L70.962,43.937z M70.103,53.633
		l8.663-8.542l3.768,0.559l-9.445,9.123l7.207,11.739l-3.917-0.58l-6.498-10.786L70.103,53.633L70.103,53.633z"/>
	<polygon fill="#F39720" points="101.197,61.892 110.704,59.738 111.373,62.691 98.884,65.523 94.25,45.077 106.71,42.253 
		107.379,45.208 97.902,47.355 99.208,53.117 108.48,51.015 109.157,53.999 99.885,56.101 	"/>
	<path fill="#F39720" d="M127.133,43.952l2.942-1.966c2.121-1.418,2.152-3.64,1.135-5.161c-0.999-1.497-3.064-2.318-5.185-0.901
		l-3.867,2.583l9.969,14.918l-2.495,1.666L117.965,37.63l6.36-4.251c3.791-2.533,7.555-1.006,9.404,1.763
		c1.649,2.47,1.696,5.831-0.947,8.355l9.896,2.878l-3.267,2.184l-11.479-3.409L127.133,43.952L127.133,43.952z"/>
	<polygon fill="#F39720" points="139.375,20.133 150.216,20.551 145.799,10.641 147.818,7.659 153.734,21.083 160.815,25.877 
		159.1,28.411 152.018,23.618 137.374,23.092 	"/>
</g>
<path id="Shape_2_" fill="#F39720" d="M154.867,109.525c0-3.128-1.57-6.004-4.157-7.728c0.001-0.035,0.001-0.071,0.001-0.107
	c0-4.841-3.938-8.779-8.778-8.779c-1.481,0-2.92,0.374-4.215,1.09c-4.944-2.833-13.127-4.799-22.539-5.505
	c0.119-0.547,0.186-1.112,0.186-1.694c0-2.714-1.367-5.112-3.446-6.551c1.395-1.594,2.667-2.38,2.71-2.406
	c0.712-0.422,0.948-1.339,0.529-2.052c-0.42-0.714-1.336-0.954-2.054-0.533c-0.119,0.07-2.109,1.264-4.058,3.75
	c-0.531-0.112-1.081-0.173-1.646-0.173c-4.392,0-7.965,3.573-7.965,7.965c0,0.582,0.067,1.148,0.186,1.694
	c-9.412,0.706-17.595,2.672-22.539,5.505c-1.294-0.716-2.733-1.09-4.214-1.09c-4.841,0-8.779,3.938-8.779,8.779
	c0,0.036,0,0.071,0.001,0.106c-2.588,1.725-4.157,4.601-4.157,7.729c0,4.693,3.485,8.578,8,9.228l5.713,15.89h67.507l5.714-15.89
	C151.382,118.103,154.867,114.219,154.867,109.525L154.867,109.525z M131.757,131.796l3.6-7.918c0.325-0.716,0.009-1.56-0.707-1.886
	c-0.714-0.322-1.56-0.009-1.886,0.707l-4.136,9.097h-8.266l1.101-8.321c0.104-0.779-0.446-1.495-1.225-1.598
	c-0.772-0.1-1.495,0.445-1.598,1.225l-1.15,8.694h-8.666v-8.508c0-0.787-0.637-1.424-1.424-1.424s-1.424,0.637-1.424,1.424v8.508
	h-8.033l-1.15-8.694c-0.103-0.78-0.814-1.333-1.598-1.225c-0.779,0.103-1.328,0.819-1.225,1.598l1.1,8.321h-9.461l-3.546-9.028
	c-0.288-0.732-1.113-1.092-1.846-0.805c-0.732,0.287-1.092,1.114-0.805,1.846l3.137,7.987h-6.9l-4.711-13.1
	c2.437-0.438,4.566-1.801,5.956-3.786c1.7,2.428,4.499,3.951,7.627,3.951c3.127,0,5.927-1.523,7.626-3.951
	c1.699,2.428,4.499,3.951,7.626,3.951c3.08,0,5.916-1.561,7.626-4.017c1.71,2.456,4.546,4.017,7.627,4.017
	c3.128,0,5.927-1.523,7.626-3.951c1.7,2.428,4.499,3.951,7.626,3.951s5.927-1.523,7.627-3.951c1.389,1.985,3.518,3.348,5.955,3.786
	l-4.711,13.1H131.757L131.757,131.796z M145.532,115.86c-2.97,0-5.504-2.027-6.163-4.93c-0.155-0.683-0.763-1.168-1.464-1.168
	c-0.7,0-1.308,0.484-1.463,1.168c-0.66,2.903-3.195,4.93-6.165,4.93c-2.969,0-5.504-2.027-6.164-4.93
	c-0.155-0.683-0.763-1.168-1.463-1.168c-0.701,0-1.308,0.485-1.464,1.168c-0.659,2.902-3.193,4.93-6.163,4.93
	c-2.78,0-5.266-1.885-6.048-4.583c-0.186-0.642-0.773-1.083-1.441-1.083l-0.17,0.001c-0.012,0-0.093-0.001-0.105-0.001
	c-0.668,0-1.255,0.441-1.441,1.083c-0.794,2.741-3.224,4.583-6.048,4.583c-2.969,0-5.504-2.027-6.163-4.93
	c-0.155-0.684-0.763-1.168-1.463-1.168s-1.308,0.484-1.463,1.168c-0.66,2.903-3.194,4.93-6.163,4.93c-2.97,0-5.504-2.027-6.164-4.93
	c-0.155-0.684-0.763-1.168-1.463-1.168s-1.308,0.484-1.463,1.168c-0.659,2.902-3.194,4.93-6.163,4.93
	c-3.493,0-6.335-2.842-6.335-6.335c0-2.35,1.318-4.495,3.439-5.597c0.557-0.289,0.875-0.894,0.797-1.517l-0.031-0.231
	c-0.022-0.161-0.05-0.322-0.05-0.49c0-3.186,2.592-5.779,5.779-5.779c1.19,0,2.342,0.372,3.332,1.075
	c0.499,0.354,1.164,0.37,1.68,0.039c4.533-2.911,13.19-4.971,23.04-5.61c1.446,2.025,3.809,3.352,6.481,3.352
	c2.672,0,5.036-1.327,6.481-3.352c9.85,0.639,18.506,2.699,23.04,5.61c0.516,0.33,1.18,0.316,1.68-0.039
	c0.989-0.703,2.142-1.075,3.332-1.075c3.186,0,5.778,2.592,5.778,5.779c0,0.171-0.028,0.336-0.051,0.501l-0.029,0.216
	c-0.08,0.624,0.238,1.232,0.797,1.522c2.122,1.101,3.44,3.245,3.44,5.596C151.867,113.018,149.025,115.86,145.532,115.86
	L145.532,115.86z M102.434,86.803c0-2.68,2.137-4.866,4.796-4.956c-0.208,0.404-0.411,0.821-0.596,1.264
	c-0.32,0.764,0.041,1.643,0.805,1.963c0.189,0.079,0.385,0.117,0.579,0.117c0.587,0,1.144-0.346,1.385-0.921
	c0.236-0.565,0.5-1.089,0.778-1.577c1.317,0.894,2.184,2.403,2.184,4.111c0,2.738-2.227,4.965-4.965,4.965
	C104.662,91.768,102.434,89.54,102.434,86.803L102.434,86.803z"/>
<g transform="translate(6.000000, 106.000000)">
	<path id="Shape_3_" fill="#F39720" d="M18.306,12.939c0.174,0.894-0.472,2.31-1.639,3.502c-1.515,1.515-3.353,2.136-4.098,1.391
		c-0.745-0.745-0.124-2.583,1.366-4.098c0.298-0.298,0.621-0.571,0.944-0.795c-0.323-0.248-0.646-0.521-0.944-0.82
		c-1.49-1.515-2.111-3.352-1.366-4.097s2.583-0.124,4.098,1.391C17.859,10.629,18.48,12.045,18.306,12.939L18.306,12.939z"/>
	<path id="Shape_4_" fill="#F39720" d="M26.044,12.939c0.174,0.894-0.472,2.31-1.664,3.502c-1.49,1.515-3.328,2.136-4.073,1.391
		c-0.745-0.745-0.124-2.583,1.366-4.098c0.298-0.298,0.621-0.571,0.944-0.795c-0.323-0.248-0.646-0.521-0.944-0.82
		c-1.49-1.515-2.111-3.352-1.366-4.097s2.583-0.124,4.073,1.391C25.597,10.629,26.218,12.045,26.044,12.939L26.044,12.939z"/>
	<path id="Shape_5_" fill="#F39720" d="M33.781,12.939c0.174,0.894-0.472,2.31-1.664,3.502c-1.49,1.515-3.328,2.136-4.073,1.391
		c-0.745-0.745-0.149-2.583,1.366-4.098c0.298-0.298,0.621-0.571,0.944-0.795c-0.323-0.248-0.646-0.521-0.944-0.82
		c-1.515-1.515-2.111-3.352-1.366-4.097s2.583-0.124,4.073,1.391C33.334,10.629,33.955,12.045,33.781,12.939L33.781,12.939z"/>
	<path id="Shape_6_" fill="#F39720" d="M41.519,12.939c0.174,0.894-0.472,2.31-1.664,3.502c-1.515,1.515-3.328,2.136-4.073,1.391
		c-0.745-0.745-0.149-2.583,1.366-4.098c0.298-0.298,0.621-0.571,0.944-0.795c-0.323-0.248-0.646-0.521-0.944-0.82
		c-1.515-1.515-2.111-3.352-1.366-4.097s2.558-0.124,4.073,1.391C41.072,10.629,41.693,12.045,41.519,12.939L41.519,12.939z"/>
	<circle id="Oval_1_" fill="#F39720" cx="7.745" cy="12.926" r="1.526"/>
</g>
<g transform="translate(161.000000, 106.000000)">
	<path id="Shape_7_" fill="#F39720" d="M29.547,12.939c-0.174,0.894,0.472,2.31,1.639,3.502c1.515,1.515,3.353,2.136,4.098,1.391
		c0.745-0.745,0.124-2.583-1.366-4.098c-0.298-0.298-0.621-0.571-0.944-0.795c0.323-0.248,0.646-0.521,0.944-0.82
		c1.49-1.515,2.111-3.352,1.366-4.097s-2.583-0.124-4.098,1.391C29.994,10.629,29.374,12.045,29.547,12.939L29.547,12.939z"/>
	<path id="Shape_8_" fill="#F39720" d="M21.81,12.939c-0.174,0.894,0.472,2.31,1.664,3.502c1.49,1.515,3.328,2.136,4.073,1.391
		c0.745-0.745,0.124-2.583-1.366-4.098c-0.298-0.298-0.621-0.571-0.944-0.795c0.323-0.248,0.646-0.521,0.944-0.82
		c1.49-1.515,2.111-3.352,1.366-4.097s-2.583-0.124-4.073,1.391C22.257,10.629,21.636,12.045,21.81,12.939L21.81,12.939z"/>
	<path id="Shape_9_" fill="#F39720" d="M14.072,12.939c-0.174,0.894,0.472,2.31,1.664,3.502c1.49,1.515,3.328,2.136,4.073,1.391
		c0.745-0.745,0.149-2.583-1.366-4.098c-0.298-0.298-0.621-0.571-0.944-0.795c0.323-0.248,0.646-0.521,0.944-0.82
		c1.515-1.515,2.111-3.352,1.366-4.097s-2.583-0.124-4.073,1.391C14.519,10.629,13.899,12.045,14.072,12.939L14.072,12.939z"/>
	<path id="Shape_10_" fill="#F39720" d="M6.335,12.939c-0.174,0.894,0.472,2.31,1.664,3.502c1.515,1.515,3.328,2.136,4.073,1.391
		c0.745-0.745,0.149-2.583-1.366-4.098c-0.298-0.298-0.621-0.571-0.944-0.795c0.323-0.248,0.646-0.521,0.944-0.82
		c1.515-1.515,2.111-3.352,1.366-4.097S9.514,7.898,7.999,9.413C6.782,10.629,6.161,12.045,6.335,12.939L6.335,12.939z"/>
	<circle id="Oval_2_" fill="#F39720" cx="40.109" cy="12.926" r="1.526"/>
</g>
</svg>
